<svg width="20" height="20" viewBox="0 0 20 20" fill="none" xmlns="http://www.w3.org/2000/svg">
    <path fill-rule="evenodd" clip-rule="evenodd" d="m3 14 .117-.007a1 1 0 0 0 .876-.876L4 13V4h9l.117-.007a1 1 0 0 0 0-1.986L13 2H3l-.117.007a1 1 0 0 0-.876.876L2 3v10l.007.117a1 1 0 0 0 .876.876L3 14zm14 4 .117-.007a1 1 0 0 0 .876-.876L18 17V7l-.007-.117a1 1 0 0 0-.764-.857l-.112-.02L17 6H7l-.117.007a1 1 0 0 0-.876.876L6 7v10l.007.117a1 1 0 0 0 .764.857l.112.02L7 18h10zM8 8v8h8V8H8z" fill="#DE1C22"/>
</svg>
