<svg width="158" height="158" viewBox="0 0 158 158" fill="none" xmlns="http://www.w3.org/2000/svg">
    <path fill-rule="evenodd" clip-rule="evenodd" d="M47.714 125.401a56.246 56.246 0 0 1-16.801-17.767c-4.999-8.377-7.871-18.17-7.871-28.634C23.042 48.095 48.095 23.04 79 23.04c11.59 0 22.356 3.524 31.287 9.557a56.255 56.255 0 0 1 17.046 18.183c4.847 8.285 7.626 17.927 7.626 28.219 0 30.905-25.054 55.958-55.959 55.958-11.589 0-22.355-3.523-31.286-9.557zM79 144.833c36.359 0 65.834-29.474 65.834-65.833 0-36.359-29.475-65.834-65.834-65.834-36.358 0-65.833 29.475-65.833 65.834S42.642 144.833 79 144.833z" fill="#F9D3D4"/>
    <mask id="hopxwrurba" style="mask-type:luminance" maskUnits="userSpaceOnUse" x="13" y="13" width="132" height="132">
        <path fill-rule="evenodd" clip-rule="evenodd" d="M47.714 125.401a56.246 56.246 0 0 1-16.801-17.767c-4.999-8.377-7.871-18.17-7.871-28.634C23.042 48.095 48.095 23.04 79 23.04c11.59 0 22.356 3.524 31.287 9.557a56.255 56.255 0 0 1 17.046 18.183c4.847 8.285 7.626 17.927 7.626 28.219 0 30.905-25.054 55.958-55.959 55.958-11.589 0-22.355-3.523-31.286-9.557zM79 144.833c36.359 0 65.834-29.474 65.834-65.833 0-36.359-29.475-65.834-65.834-65.834-36.358 0-65.833 29.475-65.833 65.834S42.642 144.833 79 144.833z" fill="#fff"/>
    </mask>
    <g mask="url(#hopxwrurba)">
        <path fill-rule="evenodd" clip-rule="evenodd" d="M79 32.917v-19.75c36.359 0 65.833 29.474 65.833 65.833h-19.75c0-25.451-20.632-46.083-46.083-46.083z" fill="#DE1C22"/>
    </g>
</svg>
