<svg width="24" height="24" viewBox="0 0 24 24" fill="none" xmlns="http://www.w3.org/2000/svg">
    <path fill-rule="evenodd" clip-rule="evenodd" d="M5 20a1 1 0 0 1-.94-1.341l.046-.106 1.155-2.311a7 7 0 0 0 .731-2.805L6 13.112V10a6.002 6.002 0 0 1 5-5.917V3a1 1 0 1 1 2 0v1.083a6.002 6.002 0 0 1 4.995 5.67L18 10v3.111a7 7 0 0 0 .6 2.836l.14.295 1.155 2.31a1 1 0 0 1-.78 1.442L19 20h-5a2 2 0 0 1-4 0H5zm7-14a4 4 0 0 0-3.995 3.8L8 10v3.111a9 9 0 0 1-.8 3.71l-.15.315-.432.864h10.764l-.432-.864a9.001 9.001 0 0 1-.943-3.676L16 13.111V10a4 4 0 0 0-4-4z" fill="#DE1C22"/>
</svg>
