<svg width="24" height="24" viewBox="0 0 24 24" fill="none" xmlns="http://www.w3.org/2000/svg">
    <path fill-rule="evenodd" clip-rule="evenodd" d="M12 4c3.588 0 6.755 2.432 9.511 7.143l.206.358L22 12l-.489.857C18.755 17.567 15.588 20 12 20c-3.588 0-6.755-2.432-9.511-7.143l-.206-.358L2 12l.283-.499C5.087 6.556 8.323 4 12 4zm0 2c-2.703 0-5.272 1.916-7.695 6 2.423 4.084 4.992 6 7.695 6 2.63 0 5.129-1.81 7.487-5.655l.208-.345-.208-.345C17.125 7.808 14.626 6 12 6zm0 3a3 3 0 1 1 0 6 3 3 0 0 1 0-6z" fill="#1A1A1A"/>
</svg>
